# xmcd
#
# Track frame offsets:
#	150
#	15589
#	26188
#	38824
#	56547
#	79575
#	93294
#	110033
#	120833
#	144676
#	157749
#	171249
#	186620
#	200506
#	210631
#	227131
#	239731
#	254581
#	263281
#	276459
#
# Disc length: 3856 seconds
#
# Revision: 1
# Processed by: cddbd v1.5.2PL0 Copyright (c) Steve Scherf et al.
# Submitted via: audiograbber 1.83.01
#
DISCID=1c0f0e14
DTITLE=Ray Charles - 40 Greatest Hits [CD2]
DYEAR=2007
DGENRE=Blues
TTITLE0=(Night Time Is) The Right Time
TTITLE1=Swanee River Rock
TTITLE2=My Bonnie
TTITLE3=Rockhouse Parts 1&2
TTITLE4=What i'd say Parts 1&2
TTITLE5=I Believe to My Soul
TTITLE6=Come Rain Or Come Shine
TTITLE7=I'm Movin'On
TTITLE8=Don't let the sun catch you cryin'
TTITLE9=Let The Good Times roll
TTITLE10=My Baby! (I Love Her, Yes I Do)
TTITLE11=Just for a Thrill
TTITLE12=Tell the truth
TTITLE13=Sticks and Stones
TTITLE14=Georgia on my Mind
TTITLE15=Them That Got
TTITLE16=Hardhearted Hannah
TTITLE17=Hit The Road Jack
TTITLE18=Hard Time (No One Knows Better Than I)
TTITLE19=Unchain My Hart
EXTD=CDDBID:1C0F0E14 (pg)
EXTT0=
EXTT1=
EXTT2=
EXTT3=
EXTT4=
EXTT5=
EXTT6=
EXTT7=
EXTT8=
EXTT9=
EXTT10=
EXTT11=
EXTT12=
EXTT13=
EXTT14=
EXTT15=
EXTT16=
EXTT17=
EXTT18=
EXTT19=
PLAYORDER=
